<?xml version="1.0" encoding="UTF-8"?>
<svg version="1.1" xmlns="http://www.w3.org/2000/svg" width="563" height="448">
<path d="M0 0 C4.84529675 4.03884969 9.40762999 8.26710494 13.85327148 12.73974609 C14.49802933 13.38435791 15.14278717 14.02896973 15.80708313 14.69311523 C17.91413559 16.80085819 20.01763474 18.91210893 22.12109375 21.0234375 C23.59060627 22.49481727 25.06034135 23.9659748 26.5302887 25.43692017 C30.38099528 29.29142775 34.22868807 33.14892999 38.07574463 37.00708008 C42.00895449 40.95055623 45.9450298 44.89117004 49.88085938 48.83203125 C57.59003446 56.55190099 65.29602623 64.27493989 73 72 C71.41219641 75.86466333 68.94066771 78.30059155 65.99951172 81.22753906 C65.492034 81.73530884 64.98455627 82.24307861 64.46170044 82.76623535 C62.78906131 84.43748509 61.10945783 86.10154556 59.4296875 87.765625 C58.26625722 88.92532377 57.10326874 90.08546592 55.94070435 91.24603271 C52.884018 94.29509352 49.82137256 97.33809963 46.75744629 100.37988281 C43.63024835 103.48659913 40.50872493 106.59900545 37.38671875 109.7109375 C31.2633512 115.81287417 25.1336764 121.90842598 19 128 C15.74511293 126.45834737 13.70299412 124.88545101 11.25 122.2265625 C10.21359375 121.1128125 10.21359375 121.1128125 9.15625 119.9765625 C8.4446875 119.20054687 7.733125 118.42453125 7 117.625 C5.58380365 116.09591844 4.16715121 114.56725914 2.75 113.0390625 C2.12609375 112.36053223 1.5021875 111.68200195 0.859375 110.98291016 C-0.46373067 109.57189856 -1.83255789 108.20317264 -3.22998047 106.86572266 C-5 105 -5 105 -5.0703125 103.109375 C-3.50898784 100.0323118 -1.24606645 97.71172027 1.125 95.25 C2.13348307 94.17771361 3.14129594 93.1047965 4.1484375 92.03125 C4.63924805 91.51175781 5.13005859 90.99226563 5.63574219 90.45703125 C8.51318191 87.38391739 11.24500561 84.18238015 14 81 C15.31176715 79.49935908 16.62425786 77.99935031 17.9375 76.5 C18.52402344 75.8296875 19.11054688 75.159375 19.71484375 74.46875 C20.13894531 73.9840625 20.56304687 73.499375 21 73 C19.51346494 69.53370165 17.54277649 67.30977964 14.8671875 64.671875 C13.65869141 63.47304688 13.65869141 63.47304688 12.42578125 62.25 C11.58402344 61.425 10.74226563 60.6 9.875 59.75 C9.02550781 58.90953125 8.17601562 58.0690625 7.30078125 57.203125 C5.20495077 55.13084317 3.10459287 53.06337607 1 51 C-5.69529866 56.49719258 -11.73696491 62.60953152 -17.83984375 68.7421875 C-18.97305199 69.87726406 -20.10648362 71.01211763 -21.24012756 72.14675903 C-24.20308335 75.11350744 -27.16302193 78.08324802 -30.12231445 81.0536499 C-33.15066856 84.0922886 -36.18190499 87.12804909 -39.21289062 90.1640625 C-45.14473089 96.1065826 -51.07338261 102.052271 -57 108 C-54.5186522 112.32136114 -51.59706823 115.64947394 -48.046875 119.11328125 C-47.46842834 119.68652634 -46.88998169 120.25977142 -46.29400635 120.85038757 C-44.450724 122.67594307 -42.60089473 124.49466558 -40.75 126.3125 C-26.79899103 140.05190702 -26.79899103 140.05190702 -21.71337891 146.03540039 C-17.92543534 150.3787435 -13.85338292 154.45629789 -9.8125 158.5625 C-8.92369141 159.48869141 -8.03488281 160.41488281 -7.11914062 161.36914062 C-6.26126953 162.23861328 -5.40339844 163.10808594 -4.51953125 164.00390625 C-3.74714111 164.79611572 -2.97475098 165.5883252 -2.17895508 166.40454102 C-0.15915564 168.24085442 -0.15915564 168.24085442 2.15258789 167.86352539 C4.74075857 166.65375141 6.29444747 164.95013668 8.25 162.875 C11.00302255 160.02812441 13.74426405 157.26657428 16.75 154.6875 C20.32336702 151.61752397 23.79444214 148.45095912 27.25 145.25 C27.8071167 144.73405273 28.3642334 144.21810547 28.93823242 143.68652344 C30.07135656 142.63695438 31.20441311 141.58731234 32.33740234 140.53759766 C36.3799546 136.79897884 40.44605304 133.08592966 44.50732422 129.36767578 C46.02814876 127.97420848 47.54747324 126.57912249 49.06640625 125.18359375 C51.0745486 123.3386449 53.08496009 121.49622967 55.09765625 119.65625 C57.02689045 117.89059824 58.95141162 116.11978245 60.87109375 114.34375 C61.75925781 113.5290625 62.64742187 112.714375 63.5625 111.875 C64.74005859 110.78832031 64.74005859 110.78832031 65.94140625 109.6796875 C68 108 68 108 71 107 C71.99 107.33 72.98 107.66 74 108 C74.99 107.34 75.98 106.68 77 106 C78.32 106 79.64 106 81 106 C80.67 104.68 80.34 103.36 80 102 C81.32 102 82.64 102 84 102 C84.66 101.67 85.32 101.34 86 101 C85.67 99.68 85.34 98.36 85 97 C85.99 96.34 86.98 95.68 88 95 C88.11542197 93.75923698 88.11542197 93.75923698 86.5 92.4375 C86.005 91.963125 85.51 91.48875 85 91 C86.50910012 87.45879942 88.57119314 85.18395635 91.2890625 82.48046875 C92.14886719 81.62259766 93.00867188 80.76472656 93.89453125 79.88085938 C94.79558594 78.99205078 95.69664062 78.10324219 96.625 77.1875 C97.50285156 76.31029297 98.38070312 75.43308594 99.28515625 74.52929688 C103.06437346 70.77534932 106.84654421 67.073007 110.8984375 63.61328125 C116.57410654 58.73604408 121.74632547 53.32177772 127 48 C132.82383797 42.10066783 138.61016748 36.24404974 144.921875 30.85986328 C147.55686361 28.50162277 150.04624915 26.00982263 152.53125 23.49609375 C153.0166626 23.00517242 153.5020752 22.5142511 154.00219727 22.00845337 C156.0085907 19.97449551 158.01131412 17.9370157 160.00927734 15.89477539 C161.49118149 14.38228921 162.97956597 12.87640822 164.46875 11.37109375 C165.33951172 10.48349365 166.21027344 9.59589355 167.10742188 8.68139648 C170.54490406 5.49487835 174.20444617 2.74178353 178 0 C178.60863892 0.61085953 179.21727783 1.22171906 179.84436035 1.85108948 C185.6080517 7.63489907 191.37420656 13.41623918 197.14307404 19.19488621 C200.10811917 22.16512827 203.07223594 25.13628409 206.03417969 28.10961914 C208.89784918 30.9842317 211.76402408 33.8563249 214.63188171 36.72675896 C215.72026862 37.81697968 216.80778183 38.90807342 217.8943634 40.00009346 C223.09103819 45.22171815 228.30485867 50.34663883 233.90414429 55.14112854 C238.69876324 59.39360655 243.20243111 63.97086226 247.75390625 68.48046875 C248.29944593 69.02068476 248.84498562 69.56090076 249.40705681 70.11748695 C252.28144721 72.96537681 255.1523103 75.81677366 258.02075195 78.6706543 C260.39117666 81.02763536 262.76870621 83.37709057 265.15258789 85.72045898 C268.04521513 88.56395979 270.92555254 91.41936347 273.79728508 94.28396034 C274.89074476 95.3706943 275.98846507 96.45315849 277.09045601 97.53124046 C278.6224156 99.03177612 280.13805055 100.54710939 281.65063477 102.06713867 C282.51697037 102.92538742 283.38330597 103.78363617 284.27589417 104.66789246 C286 107 286 107 285.96131897 109.098526 C284.86743171 111.26221803 283.69843837 112.65601551 281.96826172 114.35644531 C281.33024628 114.99100647 280.69223083 115.62556763 280.03488159 116.27935791 C279.34016754 116.95545105 278.64545349 117.63154419 277.9296875 118.328125 C277.21523468 119.0359613 276.50078186 119.74379761 275.76467896 120.4730835 C273.47509693 122.73925249 271.17564114 124.99506377 268.875 127.25 C266.59746529 129.49228025 264.32213874 131.7367353 262.04959106 133.98406982 C260.63593261 135.38098491 259.21918979 136.77478833 257.79879761 138.16485596 C254.63006946 141.28651296 251.57378688 144.4396701 248.67822266 147.81738281 C244.60406952 152.54239967 240.1984579 156.91480567 235.76963806 161.30552673 C234.24406023 162.81812332 232.72181914 164.33401202 231.20031738 165.85070801 C227.42383018 169.61395801 223.64186489 173.37168668 219.86004639 177.12957764 C216.65240132 180.31735668 213.44690705 183.50727042 210.24412537 186.69993591 C208.75796311 188.17970556 207.26878004 189.65638565 205.77941895 191.13293457 C201.17450243 195.72127864 196.68748973 200.34097508 192.4775238 205.29638672 C189.98290915 208.17272526 187.27539366 210.8313568 184.5625 213.5 C184.02173828 214.03625 183.48097656 214.5725 182.92382812 215.125 C181.61823383 216.41904036 180.30947004 217.70988174 179 219 C176.13643903 217.70005304 174.07773819 216.32621927 171.86151123 214.10202026 C171.26702179 213.51028015 170.67253235 212.91854004 170.06002808 212.30886841 C169.41985748 211.66150726 168.77968689 211.01414612 168.12011719 210.34716797 C167.43678314 209.66412598 166.7534491 208.98108398 166.04940796 208.27734375 C163.79379024 206.02033362 161.54533778 203.7563237 159.296875 201.4921875 C157.73361108 199.92519314 156.16990477 198.35864001 154.60577393 196.79251099 C150.49141555 192.67051858 146.3830988 188.54255516 142.27600098 184.41333008 C138.08345834 180.20032416 133.88524412 175.99297842 129.6875 171.78515625 C121.45276472 163.5289751 113.22439935 155.26647643 105 147 C106.77970629 143.18572623 109.00292909 140.75553917 112.00048828 137.77246094 C112.507966 137.26469116 113.01544373 136.75692139 113.53829956 136.23376465 C115.21093869 134.56251491 116.89054217 132.89845444 118.5703125 131.234375 C119.73374278 130.07467623 120.89673126 128.91453408 122.05929565 127.75396729 C125.115982 124.70490648 128.17862744 121.66190037 131.24255371 118.62011719 C134.36975165 115.51340087 137.49127507 112.40099455 140.61328125 109.2890625 C146.7366488 103.18712583 152.8663236 97.09157402 159 91 C163.14919498 92.88016448 165.70717235 95.70080115 168.6875 99.0625 C169.74717201 100.23575499 170.80838413 101.40762071 171.87109375 102.578125 C172.65782471 103.4453418 172.65782471 103.4453418 173.46044922 104.33007812 C176.85046726 108.00716715 180.42390754 111.50518237 184 115 C182.66000502 118.006818 181.20154709 119.99762609 178.8125 122.25 C175.71270654 125.26068235 172.86285879 128.39638007 170.04296875 131.66796875 C165.78644832 136.52675019 161.37754205 141.25040646 157 146 C158.48653506 149.46629835 160.45722351 151.69022036 163.1328125 154.328125 C163.93847656 155.12734375 164.74414062 155.9265625 165.57421875 156.75 C166.41597656 157.575 167.25773437 158.4 168.125 159.25 C168.97449219 160.09046875 169.82398438 160.9309375 170.69921875 161.796875 C172.79504923 163.86915683 174.89540713 165.93662393 177 168 C180.74077645 166.47513791 182.72983347 164.29171981 185.36328125 161.265625 C190.85441829 155.10345734 196.64111731 149.25264047 202.48046875 143.421875 C202.95110874 142.95161392 203.42174873 142.48135284 203.90665054 141.99684143 C206.83101437 139.07591926 209.7591684 136.15882141 212.68847656 133.24285889 C215.21151503 130.73019611 217.73159425 128.21456882 220.25195312 125.69921875 C225.16514054 120.79663836 230.081506 115.89725643 235 111 C233.47396585 107.78369859 231.90199229 105.71230701 229.3125 103.25 C226.7005867 100.75847549 224.28417054 98.1880567 221.94189453 95.44628906 C217.69241989 90.57374823 213.15046309 86.02460107 208.56640625 81.46875 C207.68846909 80.59222778 206.81053192 79.71570557 205.9059906 78.81262207 C203.12718504 76.03937204 200.34490603 73.26963718 197.5625 70.5 C195.66680135 68.60989195 193.77190217 66.71898482 191.87695312 64.828125 C187.25394811 60.21608996 182.62809343 55.60692859 178 51 C174.19287745 52.77986781 171.40579588 55.19571562 168.375 58.0625 C167.29856622 59.06552195 166.22173793 60.06812066 165.14453125 61.0703125 C164.61166504 61.56821289 164.07879883 62.06611328 163.52978516 62.57910156 C161.39812047 64.55903907 159.2318124 66.49896552 157.0625 68.4375 C152.60713196 72.43517373 148.20916481 76.49200885 143.81665039 80.55834961 C139.77954713 84.29152743 135.70154956 87.97609999 131.60546875 91.64453125 C129.06235223 93.94363059 126.54266249 96.26570427 124.02905273 98.59692383 C121.83458348 100.63034257 119.63173565 102.65457018 117.42871094 104.67871094 C116.1951939 105.81948233 114.97518296 106.97482596 113.7578125 108.1328125 C111.9375 109.8125 111.9375 109.8125 109 112 C106.87890625 111.63671875 106.87890625 111.63671875 105 111 C104.67 111 104.34 111 104 111 C103.566875 111.495 103.13375 111.99 102.6875 112.5 C101 114 101 114 97 114 C97.33 115.32 97.66 116.64 98 118 C96.68 118 95.36 118 94 118 C93.01 118.495 93.01 118.495 92 119 C92.20625 119.598125 92.4125 120.19625 92.625 120.8125 C93 123 93 123 91 126 C91.66 126.66 92.32 127.32 93 128 C92.8772235 130.90366413 92.03667003 131.96195845 90.015625 134.05859375 C89.10296875 134.84363281 88.1903125 135.62867188 87.25 136.4375 C80.03071143 142.79138489 73.31361826 149.62914248 66.56347656 156.47436523 C62.83904338 160.23398058 59.13623104 163.95387583 55.109375 167.390625 C49.42581482 172.2610209 44.25462369 177.67726082 39 183 C27.23280344 194.91973429 27.23280344 194.91973429 20.92578125 200.30126953 C17.11112006 203.66617984 13.5751316 207.32209395 10 210.9375 C9.22527344 211.71673828 8.45054687 212.49597656 7.65234375 213.29882812 C5.76589243 215.1969242 3.88183755 217.09733149 2 219 C-2.0823021 217.37762918 -4.81919972 214.45552411 -7.85083008 211.39208984 C-8.42538437 210.8194339 -8.99993866 210.24677795 -9.59190369 209.6567688 C-11.48936641 207.76300891 -13.37953238 205.86214423 -15.26953125 203.9609375 C-16.59189455 202.63738122 -17.91462868 201.31419536 -19.23771667 199.99136353 C-22.01225463 197.21526115 -24.78340153 194.43583225 -27.55200195 191.65380859 C-31.08397634 188.1049193 -34.62242179 184.56257245 -38.16324329 181.02251244 C-40.89776012 178.28772218 -43.62965098 175.55032127 -46.36069298 172.81206131 C-47.66332766 171.5062644 -48.96655128 170.20105471 -50.27039528 168.8964653 C-61.9793379 157.17350534 -61.9793379 157.17350534 -67.35188293 150.87149048 C-70.78859715 146.96898982 -74.527755 143.3512946 -78.21484375 139.6875 C-79.07058487 138.83317383 -79.92632599 137.97884766 -80.80799866 137.09863281 C-83.51547381 134.39671138 -86.22642254 131.69830641 -88.9375 129 C-90.78473675 127.15778423 -92.63174427 125.31533857 -94.47851562 123.47265625 C-98.98303003 118.97910939 -103.49039405 114.4884368 -108 110 C-106.49191128 106.46668244 -104.4443918 104.19747834 -101.73532104 101.49481201 C-100.84067139 100.59741302 -99.94602173 99.70001404 -99.02426147 98.77542114 C-98.03042687 97.78866426 -97.03649666 96.80200366 -96.04248047 95.81542969 C-94.99743417 94.77094764 -93.95282829 93.72602478 -92.90863037 92.68069458 C-90.07445727 89.84594754 -87.23415901 87.01741025 -84.39272833 84.18994045 C-81.42362069 81.23333334 -78.46017396 78.27106341 -75.49612427 75.30938721 C-69.88321723 69.70269692 -64.2652313 64.10112448 -58.64540684 58.50136876 C-52.24734431 52.12565912 -45.85495829 45.74427112 -39.46304488 39.36239767 C-26.31500686 26.23526608 -13.15985029 13.11528931 0 0 Z M92 99 C92.95421808 100.14926266 93.91352045 101.29430541 94.875 102.4375 C95.40867187 103.07558594 95.94234375 103.71367187 96.4921875 104.37109375 C97.9222757 106.10805004 97.9222757 106.10805004 100 107 C98.55922954 103.63820226 96.75249979 101.40843732 94 99 C93.34 99 92.68 99 92 99 Z M89 102 C88.34 103.32 87.68 104.64 87 106 C88.98 107.98 90.96 109.96 93 112 C94.32 111.34 95.64 110.68 97 110 C96.04578192 108.85073734 95.08647955 107.70569459 94.125 106.5625 C93.59132813 105.92441406 93.05765625 105.28632813 92.5078125 104.62890625 C91.0777243 102.89194996 91.0777243 102.89194996 89 102 Z M83 108 C82.01 109.485 82.01 109.485 81 111 C83.31 113.31 85.62 115.62 88 118 C88.99 117.34 89.98 116.68 91 116 C89.55922954 112.63820226 87.75249979 110.40843732 85 108 C84.34 108 83.68 108 83 108 Z " fill="#0C4868" transform="translate(196,226)"/>
<path d="M0 0 C4.22208995 1.35788638 7.83751036 2.89274982 11.66015625 5.15234375 C13.2215332 6.06983398 13.2215332 6.06983398 14.81445312 7.00585938 C15.88630859 7.64330078 16.95816406 8.28074219 18.0625 8.9375 C19.67608398 9.88786133 19.67608398 9.88786133 21.32226562 10.85742188 C24.21875868 12.56514965 27.11135173 14.27904146 30 16 C30.87296659 16.41365059 31.74593319 16.82730118 32.64535332 17.25348663 C35 19 35 19 35.51074409 21.49793243 C35.43111836 23.00286884 35.43111836 23.00286884 35.34988403 24.53820801 C35.30302963 25.69182831 35.25617523 26.84544861 35.207901 28.0340271 C35.13172043 29.30219269 35.05553986 30.57035828 34.97705078 31.87695312 C34.91509438 33.22620385 34.85598678 34.57558795 34.79951477 35.92507935 C34.67586888 38.84095892 34.5407472 41.75601796 34.39953995 44.6710968 C34.18302415 49.32780758 34.04719759 53.98469746 33.93209839 58.64489746 C33.91240875 59.43515399 33.89271912 60.22541051 33.87243283 61.0396142 C33.81255384 63.47691072 33.75381645 65.91423261 33.6953125 68.3515625 C33.45407848 78.37547524 33.15970138 88.385537 32.60351562 98.39746094 C29.23371146 141.25706351 29.23371146 141.25706351 46.88332057 178.58425808 C55.75869573 188.29051254 66.03851218 196.51180793 76.65108871 204.23008728 C80.27510051 206.96079261 83.62678744 209.97000179 87 213 C89.3254592 215.00934588 91.66312464 217.00391896 94 219 C104.15761912 213.34169422 113.45323826 206.81248933 122.4375 199.4375 C123.11718212 198.8808453 123.79686424 198.3241906 124.49714279 197.75066757 C140.53670179 184.29892883 151.20365226 168.86417448 153.22816718 147.71028864 C155.27313487 122.9081328 154.23962857 97.84282318 152.71986389 73.04254532 C152.52401738 69.8415006 152.34504063 66.64034092 152.18424988 63.4373436 C152.14515731 62.6605231 152.10606474 61.88370259 152.06578755 61.08334208 C151.98842996 59.53539203 151.9120562 57.98739248 151.83669543 56.43934393 C151.60624998 51.96287793 151.2464121 47.52033777 150.79018712 43.06159687 C149.16036314 26.26253608 149.16036314 26.26253608 152 19 C157.58899432 12.58760819 165.25534875 9.31095759 173.0241375 6.23131371 C176.63030142 4.73920207 179.92608734 2.89461738 183.27636051 0.9040041 C185 0 185 0 187 0 C189.82188364 27.70340184 191.69410984 55.42307393 192.75 83.25 C192.80953637 84.77822663 192.80953637 84.77822663 192.8702755 86.33732653 C194.67686763 134.06557685 195.77605533 178.42017049 162.11528182 215.44809043 C155.56949049 222.48323853 148.51282931 228.90605579 141.25 235.1875 C140.70427526 235.66253275 140.15855053 236.1375655 139.59628868 236.62699318 C128.17657449 246.55181139 116.38926468 255.93537557 103.89941406 264.49291992 C103.05355618 265.07755634 102.20769829 265.66219276 101.33620834 266.26454544 C100.16676367 267.03715021 100.16676367 267.03715021 98.97369385 267.82536316 C98.29894138 268.27353488 97.62418892 268.7217066 96.92898941 269.18345928 C94.45806774 270.22939979 93.47379052 269.97148287 91 269 C74.38512636 259.90815163 59.52695408 246.91856807 45.25 234.5625 C44.71169414 234.09924175 44.17338828 233.6359835 43.61877012 233.15868711 C14.81016785 208.27487241 -2.44999781 183.11029308 -5.4055481 144.43971252 C-6.71986226 124.06007109 -6.47286703 103.70628839 -5.6875 83.3125 C-5.64905912 82.28774268 -5.61061825 81.26298535 -5.5710125 80.20717478 C-4.54698605 53.40046644 -2.68615985 26.69026374 0 0 Z " fill="#0C4868" transform="translate(191,17)"/>
<path d="M0 0 C0.66 0 1.32 0 2 0 C2.27972656 1.08796875 2.55945313 2.1759375 2.84765625 3.296875 C6.39429418 16.53554012 11.2321107 27.20633316 21.44384766 36.6418457 C24.23802758 39.39155722 24.98508611 40.73795152 25.21044922 44.69775391 C25.09445591 48.79795543 24.5226149 52.78883419 23.79296875 56.8203125 C23.53418769 58.3229968 23.2759078 59.82576746 23.01806641 61.32861328 C22.81422333 62.49943451 22.81422333 62.49943451 22.60626221 63.69390869 C15.52457897 104.80606799 14.61264869 145.37537473 17 187 C6.11 186.67 -4.78 186.34 -16 186 C-16 173.81405694 -16 173.81405694 -15.515625 167.85546875 C-13.03564049 133.00816862 -15.72153542 98.061721 -22.01806641 63.75976562 C-25.24832005 46.051449 -25.24832005 46.051449 -22.875 40.25 C-21 38 -21 38 -18.25 35.8125 C-7.44926017 27.18262848 -3.12743735 12.91657052 0 0 Z " fill="#C0C0C0" transform="translate(284,0)"/>
<path d="M0 0 C2.9375 0.75 2.9375 0.75 6 2 C6.36548445 3.32488113 6.6937566 4.66018514 7 6 C9.94323835 8.75128802 12.16164755 10.72054918 16 12 C16.33 13.65 16.66 15.3 17 17 C14 19 14 19 10 19 C10.33 20.32 10.66 21.64 11 23 C9.68 23 8.36 23 7 23 C6.34 23.33 5.68 23.66 5 24 C5.33 25.32 5.66 26.64 6 28 C5.01 28.66 4.02 29.32 3 30 C-0.91204657 28.51612027 -1.91062149 26.5101559 -4 23 C-6.26269201 21.01324604 -8.30832695 19.34583653 -11 18 C-11.72159424 16.35636866 -12.39351421 14.68949614 -13 13 C-10 11 -10 11 -6 11 C-6.33 9.68 -6.66 8.36 -7 7 C-5.68 7 -4.36 7 -3 7 C-2.34 6.67 -1.68 6.34 -1 6 C-1.20625 5.38125 -1.4125 4.7625 -1.625 4.125 C-1.74875 3.42375 -1.8725 2.7225 -2 2 C-1.34 1.34 -0.68 0.68 0 0 Z M2 7 C1.34 8.32 0.68 9.64 0 11 C1.98 12.98 3.96 14.96 6 17 C7.32 16.34 8.64 15.68 10 15 C9.04578192 13.85073734 8.08647955 12.70569459 7.125 11.5625 C6.59132813 10.92441406 6.05765625 10.28632813 5.5078125 9.62890625 C4.0777243 7.89194996 4.0777243 7.89194996 2 7 Z M-4 13 C-4.99 14.485 -4.99 14.485 -6 16 C-3.69 18.31 -1.38 20.62 1 23 C1.99 22.34 2.98 21.68 4 21 C2.55922954 17.63820226 0.75249979 15.40843732 -2 13 C-2.66 13 -3.32 13 -4 13 Z " fill="#BFBFBF" transform="translate(283,321)"/>
</svg>
